#!OML:ASF F:\VICON\USERDATA\INSTALL\rory3\rory3.ASF
:FULLY-SPECIFIED
:DEGREES
1128
root 1.21752 15.3481 -5.20825 -6.14108 -1.82218 3.12402
lowerback -7.52149 11.7732 8.60139
upperback -2.57277 15.3099 -6.21608
thorax 5.34625 7.84403 -8.97277
lowerneck 4.14872 -8.41418 -14.1711
upperneck 49.2925 -3.3383 -15.2494
head 18.7519 -5.49569 -5.41388
rclavicle 1.44318e-013 -3.02153e-014
rhumerus 67.1099 -4.15838 -74.0614
rradius 146.867
rwrist -64.3358
rhand 0.516264 -39.5859
rfingers 7.12502
rthumb 26.0848 -67.8146
lclavicle 1.44318e-013 -3.02153e-014
lhumerus -57.1918 -12.2969 81.1261
lradius 34.1525
lwrist 19.9218
lhand -12.124 -25.3128
lfingers 7.12502
lthumb 13.9375 4.20002
rfemur -14.9943 -33.8187 17.8025
rtibia 67.1613
rfoot -48.2468 -37.1485
rtoes 9.19558
lfemur -35.2561 -20.2867 -5.22056
ltibia 23.6979
lfoot 9.04248 -6.39366
ltoes -14.8606
1129
root 1.21438 15.3456 -5.21206 -6.20005 -1.79414 3.0687
lowerback -7.39854 11.7432 8.60401
upperback -2.58601 15.2759 -6.18401
thorax 5.24806 7.82324 -8.97525
lowerneck 4.23618 -8.39102 -14.1947
upperneck 49.2549 -3.3279 -15.2375
head 18.7072 -5.49173 -5.38973
rclavicle 7.95139e-014 0
rhumerus 67.0293 -4.15189 -73.9986
rradius 146.893
rwrist -64.3427
rhand 0.414242 -39.7148
rfingers 7.12502
rthumb 25.9871 -67.958
lclavicle 7.95139e-014 0
lhumerus -57.25 -12.2806 81.1189
lradius 34.1029
lwrist 19.9285
lhand -11.3709 -26.1828
lfingers 7.12502
lthumb 14.6631 3.27872
rfemur -14.9293 -33.827 17.8633
rtibia 67.128
rfoot -48.3165 -37.0927
rtoes 9.40849
lfemur -35.2387 -20.2181 -5.20516
ltibia 23.7396
lfoot 8.99544 -6.53583
ltoes -14.9599
1130
root 1.2085 15.3488 -5.21092 -6.46348 -1.95651 2.81599
lowerback -7.17684 11.7585 8.84531
upperback -2.50176 15.2895 -6.04194
thorax 5.24118 7.83515 -8.98094
lowerneck 4.23336 -8.36859 -14.2181
upperneck 49.2367 -3.28029 -15.2605
head 18.7016 -5.47731 -5.38954
rclavicle 2.62396e-014 -2.54444e-014
rhumerus 67.0713 -4.14882 -73.9697
rradius 146.9
rwrist -64.4109
rhand 0.356815 -39.7918
rfingers 7.12502
rthumb 25.9321 -68.043
lclavicle 2.62396e-014 -2.54444e-014
lhumerus -57.2767 -12.2342 81.1169
lradius 34.0599
lwrist 19.9135
lhand -11.4158 -26.5212
lfingers 7.12502
lthumb 14.6199 2.94347
rfemur -14.543 -33.6276 18.0575
rtibia 67.0288
rfoot -48.5345 -37.0025
rtoes 9.5598
lfemur -34.8858 -20.1487 -4.98613
ltibia 23.7537
lfoot 8.921 -6.53001
ltoes -14.9033
1131
root 1.20354 15.3495 -5.21146 -6.66754 -2.09496 2.53103
lowerback -6.97289 11.7856 9.15313
upperback -2.42564 15.3158 -5.92003
thorax 5.2612 7.85609 -9.03586
lowerneck 4.11846 -8.36705 -14.1879
upperneck 49.2758 -3.2361 -15.2874
head 18.7577 -5.45822 -5.41823
rclavicle 6.99722e-014 -2.06736e-014
rhumerus 67.1542 -4.18731 -73.916
rradius 146.897
rwrist -64.4395
rhand 0.368926 -39.7525
rfingers 7.12502
rthumb 25.9437 -68.002
lclavicle 6.99722e-014 -2.06736e-014
lhumerus -57.3462 -12.3179 81.2146
lradius 34.229
lwrist 19.9772
lhand -12.3498 -26.0465
lfingers 7.12502
lthumb 13.7199 3.48125
rfemur -14.2652 -33.4477 18.3351
rtibia 66.9581
rfoot -48.7256 -36.8707
rtoes 9.66853
lfemur -34.6176 -20.0261 -4.72906
ltibia 23.7427
lfoot 8.93958 -6.5368
ltoes -14.7652
1132
root 1.20514 15.3491 -5.21345 -6.51186 -2.0017 2.7621
lowerback -7.09862 11.7763 8.88564
upperback -2.47456 15.315 -6.00395
thorax 5.23291 7.84885 -8.96816
lowerneck 4.05719 -8.37444 -14.1491
upperneck 49.3309 -3.21203 -15.3247
head 18.8091 -5.44717 -5.45497
rclavicle -2.81479e-013 3.18055e-014
rhumerus 67.1237 -4.2099 -73.8261
rradius 146.902
rwrist -64.4239
rhand 0.437805 -39.9302
rfingers 7.12502
rthumb 26.0096 -68.17
lclavicle -2.81479e-013 3.18055e-014
lhumerus -57.5293 -12.4226 81.3222
lradius 34.4906
lwrist 20.0571
lhand -12.1631 -26.0194
lfingers 7.12502
lthumb 13.8998 3.49604
rfemur -14.5064 -33.5729 18.1406
rtibia 66.9839
rfoot -48.5781 -36.904
rtoes 9.6186
lfemur -34.8178 -20.12 -4.92102
ltibia 23.7274
lfoot 8.99805 -6.47539
ltoes -14.8985
1133
root 1.20596 15.3518 -5.21348 -6.38017 -1.89217 3.01876
lowerback -7.28226 11.6994 8.5297
upperback -2.5329 15.2232 -6.0617
thorax 5.17499 7.79164 -8.83939
lowerneck 4.10914 -8.31761 -14.1701
upperneck 49.3551 -3.11568 -15.3579
head 18.8227 -5.41526 -5.45982
rclavicle -2.66371e-014 -3.65764e-014
rhumerus 67.2453 -4.17802 -73.9306
rradius 146.766
rwrist -64.5734
rhand 0.460701 -40.2383
rfingers 7.12502
rthumb 26.0316 -68.4749
lclavicle -2.66371e-014 -3.65764e-014
lhumerus -57.8039 -12.3406 81.3299
lradius 34.6994
lwrist 20.1105
lhand -11.0357 -26.575
lfingers 7.12502
lthumb 14.9861 2.86272
rfemur -14.6776 -33.7309 17.8767
rtibia 67.0039
rfoot -48.6058 -36.8051
rtoes 9.92733
lfemur -34.9586 -20.3306 -5.12247
ltibia 23.6896
lfoot 8.96812 -6.41717
ltoes -15.207
1134
root 1.20371 15.3534 -5.21229 -6.4529 -1.90305 2.99364
lowerback -7.2186 11.6504 8.52166
upperback -2.55431 15.1602 -6.03686
thorax 5.09343 7.75612 -8.83977
lowerneck 4.1543 -8.26282 -14.1656
upperneck 49.4024 -3.03147 -15.365
head 18.8502 -5.38208 -5.46126
rclavicle -1.11717e-013 -2.54444e-014
rhumerus 67.4943 -4.29857 -74.142
rradius 146.506
rwrist -64.8534
rhand 0.46983 -40.4322
rfingers 7.12502
rthumb 26.0403 -68.6675
lclavicle -1.11717e-013 -2.54444e-014
lhumerus -58.1043 -12.3991 81.3977
lradius 34.9528
lwrist 20.2725
lhand -11.2045 -26.6275
lfingers 7.12502
lthumb 14.8235 2.82229
rfemur -14.5695 -33.716 17.8696
rtibia 66.9959
rfoot -48.7229 -36.75
rtoes 10.1716
lfemur -34.8237 -20.324 -5.12651
ltibia 23.6032
lfoot 8.95012 -6.50471
ltoes -15.3147
1135
root 1.20271 15.3547 -5.20919 -6.52744 -2.00807 2.93913
lowerback -7.09479 11.6941 8.6149
upperback -2.58198 15.2209 -6.02773
thorax 5.03086 7.78541 -8.89148
lowerneck 3.94362 -8.3323 -14.1035
upperneck 49.6002 -3.01252 -15.4965
head 19.0396 -5.38671 -5.59075
rclavicle 1.03368e-014 6.36111e-015
rhumerus 67.5179 -4.46712 -74.1783
rradius 146.322
rwrist -64.8142
rhand 0.809008 -39.9825
rfingers 7.12502
rthumb 26.365 -68.1696
lclavicle 1.03368e-014 6.36111e-015
lhumerus -58.2354 -12.5508 81.4891
lradius 34.9888
lwrist 20.3216
lhand -12.5366 -26.1922
lfingers 7.12502
lthumb 13.5399 3.34762
rfemur -14.4699 -33.6111 17.9115
rtibia 66.9685
rfoot -48.5768 -36.9088
rtoes 9.97535
lfemur -34.6841 -20.209 -5.10743
ltibia 23.5476
lfoot 9.00645 -6.48074
ltoes -15.1702
1136
root 1.20145 15.3588 -5.2068 -6.48562 -2.08578 3.0317
lowerback -7.13112 11.7446 8.52375
upperback -2.62173 15.2934 -6.07202
thorax 5.01419 7.81848 -8.8714
lowerneck 3.35307 -8.53641 -14.0977
upperneck 49.967 -3.01567 -15.8058
head 19.4628 -5.44067 -5.87646
rclavicle 1.31198e-014 5.40694e-014
rhumerus 67.218 -4.41043 -74.063
rradius 146.427
rwrist -64.4683
rhand 1.12371 -39.3054
rfingers 7.12502
rthumb 26.6662 -67.4471
lclavicle 1.31198e-014 5.40694e-014
lhumerus -58.1126 -12.4931 81.3832
lradius 34.6511
lwrist 20.1599
lhand -12.9687 -26.2006
lfingers 7.12502
lthumb 13.1233 3.36651
rfemur -14.5209 -33.5579 17.8412
rtibia 66.9443
rfoot -48.4242 -36.9498
rtoes 9.44475
lfemur -34.7146 -20.2825 -5.12426
ltibia 23.5521
lfoot 9.08278 -6.21321
ltoes -14.8281
1137
root 1.19752 15.3612 -5.20668 -6.52207 -2.17226 2.98258
lowerback -7.08435 11.7849 8.56877
upperback -2.63012 15.3481 -6.07615
thorax 5.00489 7.84637 -8.89602
lowerneck 3.93051 -8.36237 -14.0672
upperneck 49.6929 -3.07592 -15.4269
head 19.0996 -5.40265 -5.58671
rclavicle 1.05356e-013 1.27222e-014
rhumerus 66.8952 -4.2653 -73.9051
rradius 146.747
rwrist -64.2935
rhand 0.751824 -39.7432
rfingers 7.12502
rthumb 26.3103 -67.9385
lclavicle 1.05356e-013 1.27222e-014
lhumerus -57.8901 -12.4234 81.223
lradius 34.275
lwrist 20.1111
lhand -12.72 -26.3083
lfingers 7.12502
lthumb 13.3631 3.24321
rfemur -14.4527 -33.4518 17.9093
rtibia 66.9166
rfoot -48.5455 -36.7548
rtoes 8.29513
lfemur -34.6348 -20.2905 -5.0297
ltibia 23.535
lfoot 9.04555 -6.15161
ltoes -14.8369
1138
root 1.19506 15.3591 -5.20828 -6.59649 -2.19353 2.81231
lowerback -7.00011 11.7753 8.7446
upperback -2.60107 15.3281 -6.02669
thorax 5.01612 7.84051 -8.95219
lowerneck 4.09891 -8.28875 -13.991
upperneck 49.5654 -3.06169 -15.3446
head 18.9555 -5.36752 -5.51424
rclavicle -3.73715e-014 -5.56597e-014
rhumerus 66.8731 -4.19511 -73.8147
rradius 146.921
rwrist -64.2778
rhand 0.404447 -40.3936
rfingers 7.12502
rthumb 25.9777 -68.6381
lclavicle -3.73715e-014 -5.56597e-014
lhumerus -57.6945 -12.3382 81.1489
lradius 33.9891
lwrist 20.0594
lhand -12.7468 -26.3249
lfingers 7.12502
lthumb 13.3372 3.22831
rfemur -14.325 -33.3951 18.0785
rtibia 66.8824
rfoot -48.71 -36.6081
rtoes 9.52301
lfemur -34.518 -20.1969 -4.89878
ltibia 23.5082
lfoot 8.94446 -6.33937
ltoes -15.3228
1139
root 1.1913 15.3539 -5.21848 -6.57184 -1.87761 2.84785
lowerback -7.01872 11.625 8.60662
upperback -2.54789 15.1352 -6.02723
thorax 5.00387 7.74412 -8.9186
lowerneck 4.03852 -8.27015 -13.9753
upperneck 49.5049 -3.02387 -15.3721
head 18.9288 -5.35131 -5.51875
rclavicle -1.19271e-015 3.18055e-015
rhumerus 67.0168 -4.14667 -73.8281
rradius 146.923
rwrist -64.2645
rhand 0.530239 -40.2464
rfingers 7.12502
rthumb 26.0982 -68.4732
lclavicle -1.19271e-015 3.18055e-015
lhumerus -57.4813 -12.0915 81.0118
lradius 33.7119
lwrist 19.8362
lhand -12.5987 -26.9176
lfingers 7.12502
lthumb 13.48 2.62611
rfemur -14.37 -33.7193 18.0223
rtibia 66.8842
rfoot -48.5376 -36.9031
rtoes 9.63896
lfemur -34.6686 -20.2238 -5.02365
ltibia 23.5158
lfoot 8.9575 -6.6133
ltoes -15.3089
1140
root 1.1932 15.3585 -5.21345 -6.50223 -1.92181 2.97456
lowerback -7.308 11.6304 8.49746
upperback -2.47893 15.1304 -6.03794
thorax 5.21094 7.74737 -8.809
lowerneck 4.05803 -8.25756 -14.0885
upperneck 49.4367 -3.03881 -15.3074
head 18.8882 -5.36929 -5.45717
rclavicle 6.83819e-014 2.54444e-014
rhumerus 67.1325 -4.08313 -73.8656
rradius 146.851
rwrist -64.2995
rhand 0.650991 -39.9956
rfingers 7.12502
rthumb 26.2138 -68.2053
lclavicle 6.83819e-014 2.54444e-014
lhumerus -57.2987 -11.8157 80.8425
lradius 33.4639
lwrist 19.651
lhand -12.9306 -27.6786
lfingers 7.12502
lthumb 13.1601 1.88606
rfemur -14.448 -33.7654 17.8802
rtibia 66.8676
rfoot -48.3257 -37.0865
rtoes 9.43683
lfemur -34.7321 -20.2295 -5.13372
ltibia 23.5644
lfoot 8.96657 -6.48544
ltoes -15.0334
1141
root 1.19141 15.3588 -5.21632 -6.524 -1.91672 2.87877
lowerback -7.28779 11.604 8.56204
upperback -2.47697 15.0889 -5.98998
thorax 5.19507 7.72604 -8.8055
lowerneck 4.14744 -8.26897 -14.2601
upperneck 49.4016 -3.10715 -15.212
head 18.8566 -5.41713 -5.37977
rclavicle 1.06946e-013 7.15625e-014
rhumerus 67.183 -4.04296 -73.8701
rradius 146.787
rwrist -64.3
rhand 0.618387 -40.051
rfingers 7.12502
rthumb 26.1825 -68.2653
lclavicle 1.06946e-013 7.15625e-014
lhumerus -57.3321 -11.7483 80.8348
lradius 33.47
lwrist 19.7181
lhand -12.9306 -28.1516
lfingers 7.12502
lthumb 13.1601 1.41307
rfemur -14.4182 -33.7669 17.9934
rtibia 66.8454
rfoot -48.3008 -37.1474
rtoes 9.33111
lfemur -34.728 -20.2356 -5.03032
ltibia 23.5904
lfoot 8.94079 -6.49315
ltoes -14.973
1142
root 1.19011 15.3594 -5.21829 -6.53933 -1.92747 2.76616
lowerback -7.26791 11.589 8.66821
upperback -2.47309 15.0602 -5.94426
thorax 5.19551 7.71263 -8.82219
lowerneck 4.18336 -8.29854 -14.3889
upperneck 49.3721 -3.16959 -15.1798
head 18.8384 -5.46259 -5.34502
rclavicle -9.62118e-014 -6.36111e-015
rhumerus 67.3517 -4.09202 -73.9491
rradius 146.682
rwrist -64.4056
rhand 0.534167 -40.3393
rfingers 7.12502
rthumb 26.1019 -68.5655
lclavicle -9.62118e-014 -6.36111e-015
lhumerus -57.4611 -11.7813 80.8992
lradius 33.6386
lwrist 19.8678
lhand -12.4004 -28.4403
lfingers 7.12502
lthumb 13.6711 1.09074
rfemur -14.3914 -33.7484 18.1328
rtibia 66.8121
rfoot -48.1844 -37.3005
rtoes 8.63329
lfemur -34.7381 -20.2775 -4.88876
ltibia 23.6312
lfoot 8.90563 -6.47237
ltoes -15.0474
